<?xml version="1.0" encoding="UTF-8"?>
<svg xmlns="http://www.w3.org/2000/svg" onmouseup="{ if(window.parent.document.onmouseup) window.parent.document.onmouseup(arguments[0]);}" xml:space="preserve" enable-background="new 0 0 255.118 50.571" viewBox="0 0 255.118 50.571" height="50.571px" width="255.118px" y="0px" x="0px" id="Layer_1" version="1.1" xmlns:xlink="http://www.w3.org/1999/xlink"><polygon data-cppathid="10000" points="4.954,19.93 13.031,28.807 16.547,28.532 8.627,19.529 " fill="#662D91"/><polygon data-cppathid="10001" points="10.203,19.27 17.782,28.429 20.131,28.231 12.421,19.04 " fill="#0082CA"/><polygon data-cppathid="10002" points="13.903,18.909 16.927,18.643 25.402,27.876 21.419,28.123 " fill="#25A9E1"/><polygon data-cppathid="10003" points="18.835,18.401 27.358,27.635 30.813,27.301 22.507,18.093 " fill="#8DC63F"/><polygon data-cppathid="10004" points="23.899,17.874 32.406,27.223 35.288,27.039 27.571,17.494 " fill="#FFDD00"/><polygon data-cppathid="10005" points="28.914,17.369 36.952,26.822 40.853,26.495 31.911,17.058 " fill="#FF5000"/><g><defs><rect data-cppathid="10006" height="209.329" width="348.882" y="-74.129" x="-51.882" id="SVGID_1_"/></defs><clipPath id="SVGID_2_"><use overflow="visible" xlink:href="#SVGID_1_"/></clipPath><path data-cppathid="10007" d="M41.951,26.112l-8.209-9.183l2.571-0.286l7.348,5.722   C42.45,23.545,42.129,24.886,41.951,26.112" fill="#F7323F" clip-path="url(#SVGID_2_)"/><polygon data-cppathid="10008" points="8.954,27.771 11.925,29.795 9.151,32.441 2.203,33.275 5.235,30.604 1.679,28.526  " clip-path="url(#SVGID_2_)"/><polygon data-cppathid="10009" points="13.199,30.266 5.353,41.85 7.372,41.583 15.462,30.087  " fill="#662D91" clip-path="url(#SVGID_2_)"/><polygon data-cppathid="10010" points="17.033,29.914 8.922,41.461 11.018,41.173 19.376,29.7  " fill="#0082CA" clip-path="url(#SVGID_2_)"/><polygon data-cppathid="10011" points="20.811,29.506 12.428,41.036 14.84,40.726 22.74,29.391  " fill="#25A9E1" clip-path="url(#SVGID_2_)"/><path data-cppathid="10012" d="M41.782,27.503L31.692,38.752l3.636-0.333l8.331-7.421   C42.846,30.699,41.372,27.741,41.782,27.503" fill="#F7323F" clip-path="url(#SVGID_2_)"/><polygon data-cppathid="10013" points="39.555,27.767 30.007,39.125 25.724,39.452 35.328,28.123  " fill="#FF5000" clip-path="url(#SVGID_2_)"/><polygon data-cppathid="10014" points="33.306,28.376 23.899,39.7 20.617,40.071 29.381,28.711  " fill="#FFDD00" clip-path="url(#SVGID_2_)"/><polygon data-cppathid="10015" points="27.728,28.876 19.086,40.228 16.187,40.568 24.41,29.247  " fill="#8DC63F" clip-path="url(#SVGID_2_)"/><path data-cppathid="10016" d="M44.857,22.389c-2.14,2.496-1.549,5.487,0,8.651h1.878   c-1.577-3.225-2.346-6.258-0.226-8.616L44.857,22.389z" fill="#55565A" clip-path="url(#SVGID_2_)"/><path data-cppathid="10017" d="M47.424,22.575l2.034,0.14c-1.567,2.677-1.334,5.466,0,8.324h-1.729   C46.482,27.912,46.049,25.001,47.424,22.575" fill="#55565A" clip-path="url(#SVGID_2_)"/><path data-cppathid="10018" d="M50.718,23.77c-0.876,1.802-0.649,3.748,0.398,5.794l12.39-1.102   c-1.865,3.663-3.531,8.646-5.137,14.025c1.372,1.033,2.98,1.483,4.826,1.353c1.539-6.155,3.341-11.779,5.858-15.98   c3.769,9.569,8.051,17.352,16.107,21.317c1.038-0.149,2.59-1.114,3.141-2.435c-6.778-4.621-11.274-11.682-14.365-20.246   c10.048-3.766,18.735-12.421,26.922-22.865c-1.135-1.041-2.537-1.685-4.219-1.91C88.288,11.946,79.874,20.164,71.271,22.27   L82.059,3.495c-1.312-1.077-2.862-1.775-4.681-2.036L66.357,22.359L50.718,23.77z" fill="#EAB325" clip-path="url(#SVGID_2_)"/><path data-cppathid="10019" d="M124.492,14.804c-6.671-2.129-10.504,5.467-10.458,9.38   c0.082,6.809,4.13,15.16,1.379,16.857c-1.641,1.014-6.607-7.292-6.607-7.292s-9.682,7.619-14.118,9.097   c-4.436,1.479-3.888-2.962-3.888-2.962s23.658-17.042,13.774-22.46c-3.718-2.203-9.498,1.598-14.144,8.816   c-6.304,9.792-5.276,17.421-0.142,19.479c8.38,3.36,17.306-7.368,17.306-7.368s5.78,12.278,12.096,4.797   c2.619-3.105-1.984-13.696-1.698-18.883c0.142-2.564,2.337-6.954,4.844-5.871c1.575,0.68-0.473,6.014-0.473,6.014l2.836,1.721   C125.202,26.13,129.852,16.514,124.492,14.804 M102.085,20.476c3.025,1.112-9.646,15.367-10.977,14.339   C88.75,33.103,99.06,19.364,102.085,20.476" fill="#EAB325" clip-path="url(#SVGID_2_)"/><path data-cppathid="10020" d="M142.995,0.887c-7.016,10.683-13.394,25.257-19.059,41.193   c1.492,1.162,3.079,1.876,4.789,2.01c4.785-7.001,9.209-14.333,13.125-17.315c-5.285,12.917-4.164,18.575,1.624,18.945   c1.722-0.186,2.818-1.021,3.679-2.102c-6.791-1.494-3.999-11.154,2.114-25.053c-1.149-0.695-2.475-0.98-4.084-0.598   c-5.427,3.919-10.638,10.604-14.79,17.559c4.216-11.549,9.756-22.492,16.552-32.862C146.336,1.401,144.956,0.868,142.995,0.887" fill="#EAB325" clip-path="url(#SVGID_2_)"/><path data-cppathid="10021" d="M156.181,40.208c-4.438,1.479-3.889-2.961-3.889-2.961   s23.659-17.043,13.774-22.46c-3.718-2.203-9.499,1.599-14.144,8.816c-6.304,9.794-5.278,17.421-0.144,19.48   c8.381,3.359,17.307-7.369,17.307-7.369l1.21-4.602C170.296,31.113,160.616,38.731,156.181,40.208 M163.577,17.839   c3.025,1.112-9.647,15.365-10.978,14.338C150.242,30.465,160.552,16.727,163.577,17.839" fill="#EAB325" clip-path="url(#SVGID_2_)"/><path data-cppathid="10022" d="M190.431,24.125l-9.905,0.878c0,0-4.137,12.564-5.934,19.172   c-1.545,0.148-2.932,0.007-4.153-0.441c1.816-6.275,5.699-18.159,5.699-18.159l-6.55,0.544c-0.237-1.351,0.017-2.729,0.709-4.132   l7.437-0.925c0,0,3.695-9.677,5.697-14.099c1.805-0.426,3.222-0.264,4.203,0.56c-1.976,4.201-5.522,13.128-5.522,13.128   l8.442-0.621l2.263,1.574L190.431,24.125z" fill="#EAB325" clip-path="url(#SVGID_2_)"/><polygon data-cppathid="10023" points="192.816,19.863 195.353,19.676 194.241,21.023  " fill="#EAB325" clip-path="url(#SVGID_2_)"/><path data-cppathid="10024" d="M197.966,23.459l2.372-0.283c-0.447-1.433-0.501-2.766-0.315-3.911   l-2.854,0.277l-1.73,1.839L197.966,23.459z" fill="#EAB325" clip-path="url(#SVGID_2_)"/><polygon data-cppathid="10025" points="196.253,23.611 192.962,23.901 194.607,22.115  " fill="#EAB325" clip-path="url(#SVGID_2_)"/><path data-cppathid="10026" d="M204.441,24.832l1.885-0.191c0.225-2.944-0.184-5.574-1.354-7.828l-1.493,0.206   C202.644,19.552,203.117,22.165,204.441,24.832" fill="#EAB325" clip-path="url(#SVGID_2_)"/><path data-cppathid="10027" d="M203.613,24.917l-1.031,0.106c-1.355-2.67-1.986-5.273-1.088-7.734l1.298-0.178   C201.776,19.322,202.23,21.979,203.613,24.917" fill="#EAB325" clip-path="url(#SVGID_2_)"/><path data-cppathid="10028" d="M252.616,16.885c-14.757-1.875-29.236-3.822-34.964-8.071   c-3.476,4.544-7.225,7.783-11.572,8.205c0.471,0.778,0.817,1.602,1.038,2.469L252.616,16.885z" fill="#EAB325" clip-path="url(#SVGID_2_)"/><path data-cppathid="10029" d="M253.076,17.959c-14.107,3.951-26.997,8.05-32.569,13.039   c-4.497-4.304-8.94-7.382-13.244-7.366c0.157-0.98,0.185-1.916,0.092-2.808L253.076,17.959z" fill="#EAB325" clip-path="url(#SVGID_2_)"/></g></svg>