<?xml version="1.0" encoding="UTF-8"?>
<svg xmlns="http://www.w3.org/2000/svg" onmouseup="{ if(window.parent.document.onmouseup) window.parent.document.onmouseup(arguments[0]);}" xml:space="preserve" enable-background="new 0 0 36 36" viewBox="0 0 36 36" height="36px" width="36px" y="0px" x="0px" id="S_Close_18_N_2x" version="1.1" xmlns:xlink="http://www.w3.org/1999/xlink"><path data-cppathid="10000" d="M26.484,6.686L18,15.172L9.515,6.686c-0.391-0.391-1.023-0.391-1.414,0L6.686,8.1  c-0.391,0.39-0.391,1.023,0,1.414L15.172,18l-8.486,8.484c-0.391,0.391-0.391,1.021,0,1.414L8.1,29.314  c0.391,0.391,1.023,0.391,1.414,0L18,20.828l8.484,8.486c0.391,0.391,1.021,0.391,1.414,0l1.416-1.414  c0.391-0.394,0.391-1.023,0-1.414L20.828,18l8.486-8.485c0.391-0.391,0.391-1.023,0-1.414L27.9,6.686  c-0.394-0.391-1.023-0.391-1.414-0.001C26.484,6.686,26.484,6.686,26.484,6.686z" fill="#FFFFFF"/></svg>